<?xml version="1.0" encoding="utf-8"?>
<!-- Generator: Adobe Illustrator 23.0.3, SVG Export Plug-In . SVG Version: 6.00 Build 0)  -->
<svg version="1.1" xmlns="http://www.w3.org/2000/svg" xmlns:xlink="http://www.w3.org/1999/xlink" x="0px" y="0px"
	 viewBox="0 0 1024 1024" style="enable-background:new 0 0 1024 1024;" xml:space="preserve">
<style type="text/css">
	.st0{fill:#A8A8A8;}
	.st1{fill:#C1C1C1;}
	.st2{fill:#828282;}
	.st3{fill:#3F3F3F;}
	.st4{fill:#CCCCCC;}
	.st5{fill:#595959;}
	.st6{fill:#C1BFBF;}
	.st7{fill:#D8D8D8;}
	.st8{fill:#2D2D2D;}
</style>
<g id="Layer_1">
</g>
<g id="Layer_2">
</g>
<g id="Layer_4">
</g>
<g id="Layer_3">
	<g>
		<g>
			<g>
				<g>
					<polygon class="st0" points="410.1,305 930.5,605.4 742.6,712.8 222.2,412.4 					"/>
					<polygon class="st1" points="222.1,412.3 742.5,712.8 742.5,927 222.1,626.5 					"/>
					<polygon class="st2" points="928.7,605 742.1,712.8 742.1,927 928.7,819.2 					"/>
				</g>
			</g>
		</g>
		<g>
			<polygon class="st3" points="708,788.3 281,541.8 281,577.6 708,824.1 			"/>
			<path class="st4" d="M711.9,830.8l-434.7-251v-44.7l434.7,251V830.8z M284.9,575.4l419.2,242v-26.8l-419.2-242V575.4z"/>
		</g>
		<g>
			<polygon class="st5" points="814.3,631 387.4,384.5 356.4,402.4 783.4,648.9 			"/>
			<path class="st6" d="M783.4,653.4l-434.7-251l38.7-22.4l434.7,251L783.4,653.4z M364.2,402.4l419.2,242l23.2-13.4L387.4,389
				L364.2,402.4z"/>
		</g>
		<g>
			<polygon class="st7" points="770.8,321.6 381.9,97 381.9,412.9 770.8,637.5 			"/>
			<g>
				<path class="st8" d="M437.2,219.7c0,2.8,0.1,5.5,0.5,7.9l-4.6-2.6l-0.4-4.2l-0.2-0.1c-1.5,1.6-4.5,2.1-8.5-0.2
					c-5.6-3.2-8.5-9.4-8.5-14c0-7.7,6-8.5,16.7-2.2v-0.7c0-2.6-0.6-7.7-6.3-11c-2.6-1.5-5.3-2.1-7.2-1.8l-1.1-4.5
					c2.3-0.4,5.6,0.4,9.1,2.4c8.5,4.9,10.6,12.7,10.6,19.1V219.7z M432.3,208.2c-5.5-3.3-11.8-5.8-11.8,0.4c0,3.8,2.2,6.8,4.8,8.3
					c3.6,2.1,5.9,0.8,6.7-1.5c0.2-0.5,0.3-1.1,0.3-1.7V208.2z"/>
				<path class="st8" d="M469.3,199.1v38.5c0,2.8,0.1,6.1,0.2,8.4l-4.5-2.6l-0.2-5.7l-0.1-0.1c-1.5,2.7-4.9,3.4-9.5,0.8
					c-6.7-3.9-11.9-13.4-11.9-23c-0.1-10.6,5.7-13.8,12.4-9.9c4.2,2.5,7.1,6.4,8.4,9.7l0.1,0.1v-19L469.3,199.1z M464.3,224
					c0-0.7-0.1-1.7-0.2-2.6c-0.7-4.1-3.5-8.7-7.3-10.9c-5.2-3-8.3,0.5-8.3,7.5c0,6.4,2.8,13.4,8.2,16.5c3.4,2,6.5,1.2,7.4-2.6
					c0.2-0.7,0.2-1.4,0.2-2.4V224z"/>
				<path class="st8" d="M494.9,260.6v-27.4l-11.6-6.7v27.4l-5-2.9v-27.4l-3.9-2.3v-4.4l3.9,2.3v-0.9c0-4.5,0.9-7.8,3.1-9.1
					c1.6-1,3.9-0.8,7,1c1.6,0.9,3.1,2.4,4,3.4l-1,3.7c-0.7-0.9-1.8-1.9-3-2.6c-4-2.3-5,1-5,6v1.3l11.6,6.7v-1.5c0-4.5,0.9-8,3.3-9.2
					c1.9-1,4.4-0.4,6.7,0.9c1.8,1.1,3.3,2.4,4.3,3.4l-0.6,4.1c-0.8-0.9-1.8-1.8-3.3-2.6c-4.2-2.5-5.4,1.2-5.4,6.1v1.7l6.7,3.9v4.4
					l-6.7-3.8v27.4L494.9,260.6z"/>
				<path class="st8" d="M534.4,236.7v38.5c0,2.8,0.1,6.1,0.2,8.4l-4.5-2.6l-0.2-5.7l-0.1-0.1c-1.5,2.7-4.9,3.4-9.5,0.8
					c-6.7-3.9-11.9-13.4-11.9-23c-0.1-10.6,5.7-13.8,12.4-9.9c4.2,2.5,7.1,6.4,8.4,9.7l0.1,0.1v-19L534.4,236.7z M529.3,261.6
					c0-0.7-0.1-1.7-0.2-2.6c-0.7-4.1-3.5-8.7-7.3-10.9c-5.2-3-8.3,0.5-8.3,7.5c0,6.4,2.8,13.4,8.2,16.5c3.4,2,6.5,1.2,7.4-2.6
					c0.2-0.7,0.2-1.4,0.2-2.4V261.6z"/>
				<path class="st8" d="M562.2,291.8c0,2.8,0.1,5.5,0.5,7.9l-4.6-2.6l-0.4-4.2l-0.2-0.1c-1.5,1.6-4.5,2.1-8.5-0.2
					c-5.6-3.2-8.5-9.4-8.5-14c0-7.7,6-8.5,16.7-2.2v-0.7c0-2.6-0.6-7.7-6.3-11c-2.6-1.5-5.3-2.1-7.2-1.8l-1.1-4.5
					c2.3-0.4,5.6,0.4,9.1,2.4c8.5,4.9,10.6,12.7,10.6,19.1V291.8z M557.4,280.4c-5.5-3.3-11.8-5.8-11.8,0.4c0,3.8,2.2,6.8,4.8,8.3
					c3.6,2.1,5.9,0.8,6.7-1.5c0.2-0.5,0.3-1.1,0.3-1.7V280.4z"/>
				<path class="st8" d="M570.4,257.5l5,2.9v20l0.1,0.1c1.8-2.5,5-3,9.5-0.4c6.9,4,11.8,13.4,11.7,23c0,11.4-6.3,13.4-12.4,9.9
					c-4-2.3-7.2-5.9-9.3-11.4l-0.2-0.1l-0.2,5.1l-4.4-2.5c0.1-2.1,0.2-5.3,0.2-8.1V257.5z M575.4,294.3c0,0.7,0.1,1.5,0.2,2.2
					c1,4.6,3.9,9,7.6,11.1c5.3,3,8.4-0.1,8.4-7.4c0-6.4-2.9-13.5-8.3-16.6c-3.4-2-6.7-1.1-7.7,2.7c-0.1,0.6-0.3,1.3-0.3,2.2V294.3z"
					/>
				<path class="st8" d="M604.6,292.1l4,9.1c1,2.4,1.9,4.5,2.8,6.8l0.2,0.1c0.9-1.4,1.8-2.5,2.8-3.7l3.9-4.5l5.4,3.1l-9.5,9.9
					l9.7,22.1l-5.7-3.3l-4.1-9.5c-1.1-2.5-2-4.8-3-7.2l-0.1-0.1c-0.9,1.4-1.9,2.5-2.9,3.8l-4,4.9l-5.6-3.2l9.9-10.6l-9.4-21
					L604.6,292.1z"/>
				<path class="st8" d="M647.7,347.6c-1.3,0-4.2-0.5-8-2.7c-8.4-4.8-13.8-14.6-13.8-24.3c0-9.8,5.8-13.5,14.9-8.3
					c3,1.7,5.6,4.1,7,5.7l-1.1,3.8c-1.2-1.5-3.1-3.3-5.8-4.9c-6.4-3.7-9.8-0.3-9.8,6.4c0,7.4,4.1,14.3,9.6,17.5
					c2.9,1.7,4.8,1.9,6.2,2L647.7,347.6z"/>
				<path class="st8" d="M653.6,305.5l5,2.9v20l0.1,0.1c1.8-2.5,5-3,9.5-0.4c6.9,4,11.8,13.4,11.7,23c0,11.4-6.3,13.4-12.4,9.9
					c-4-2.3-7.2-5.9-9.3-11.4l-0.2-0.1l-0.2,5.1l-4.4-2.5c0.1-2.1,0.2-5.3,0.2-8.1V305.5z M658.6,342.3c0,0.7,0.1,1.5,0.2,2.2
					c1,4.6,3.9,9,7.6,11.1c5.3,3,8.4-0.1,8.4-7.4c0-6.4-2.9-13.5-8.3-16.6c-3.4-2-6.7-1.1-7.7,2.7c-0.1,0.6-0.3,1.3-0.3,2.2V342.3z"
					/>
				<path class="st8" d="M682.7,365.7l12.6-11.5c1.2-1,2.4-1.9,3.6-2.8v-0.1l-15-8.7v-4.7L705,350l-0.1,3.6L692.6,365
					c-1.1,1.1-2.3,2-3.6,2.9v0.1l16.2,9.4v4.6l-22.5-13V365.7z"/>
				<path class="st8" d="M710.4,338.3l5,2.9v20l0.1,0.1c1.8-2.5,5-3,9.5-0.4c6.9,4,11.8,13.4,11.7,23c0,11.4-6.3,13.4-12.4,9.9
					c-4-2.3-7.2-5.9-9.3-11.4l-0.2-0.1l-0.2,5.1l-4.4-2.5c0.1-2.1,0.2-5.3,0.2-8.1V338.3z M715.4,375.1c0,0.7,0.1,1.5,0.2,2.2
					c1,4.6,3.9,9,7.6,11.1c5.3,3,8.4-0.1,8.4-7.4c0-6.4-2.9-13.5-8.3-16.6c-3.4-2-6.7-1.1-7.7,2.7c-0.1,0.6-0.3,1.3-0.3,2.2V375.1z"
					/>
				<path class="st8" d="M437.2,298.6c0,2.8,0.1,5.5,0.5,7.9l-4.6-2.6l-0.4-4.2l-0.2-0.1c-1.5,1.6-4.5,2.1-8.5-0.2
					c-5.6-3.2-8.5-9.4-8.5-14c0-7.7,6-8.5,16.7-2.2v-0.7c0-2.6-0.6-7.7-6.3-11c-2.6-1.5-5.3-2.1-7.2-1.8l-1.1-4.5
					c2.3-0.4,5.6,0.4,9.1,2.4c8.5,4.9,10.6,12.7,10.6,19.1V298.6z M432.3,287.2c-5.5-3.3-11.8-5.8-11.8,0.4c0,3.8,2.2,6.8,4.8,8.3
					c3.6,2.1,5.9,0.8,6.7-1.5c0.2-0.5,0.3-1.1,0.3-1.7V287.2z"/>
				<path class="st8" d="M469,320c0,7.3-1.3,11.1-4,12.3c-2.7,1.3-6.6,0-10.1-2c-3.3-1.9-7-5-9.2-8l1.3-3.7c1.8,2.4,4.7,5.2,8.1,7.2
					c5.2,3,8.9,2.1,8.9-6v-3.6l-0.1-0.1c-1.5,2.1-4.5,2.7-8.8,0.2c-6.9-4-11.8-13.5-11.8-22.4c0-10.8,6.1-13.4,12.5-9.7
					c4.8,2.8,7.5,7.2,8.7,10.5l0.1,0.1l0.2-4.7l4.4,2.5c-0.1,2.2-0.2,4.7-0.2,8.6V320z M464.1,302.5c0-1-0.1-1.9-0.3-2.8
					c-0.9-3.9-3.4-8.1-7.1-10.2c-4.8-2.8-8.3-0.1-8.3,7.3c0,6.3,2.8,13,8.2,16.2c3.1,1.8,5.9,1.2,7-1.9c0.3-0.8,0.4-1.9,0.4-2.9
					V302.5z"/>
				<path class="st8" d="M478.2,329.9v-27.4l-3.9-2.3v-4.4l3.9,2.3v-1.5c0-4.5,0.9-8.1,3.2-9.3c1.9-1,4.4-0.4,6.8,0.9
					c1.8,1,3.3,2.4,4.3,3.4l-0.7,4.1c-0.7-0.8-1.8-1.8-3.2-2.6c-4.3-2.5-5.4,1.2-5.4,6.1v1.7l6.7,3.9v4.4l-6.7-3.9v27.4L478.2,329.9
					z"/>
				<path class="st8" d="M494.4,292.6l5,2.9v19.9l0.1,0.1c0.8-1.2,2.1-1.9,3.6-2c1.5-0.1,3.3,0.2,5.2,1.3c3.7,2.2,9.7,8.2,9.7,19.2
					v19l-5-2.9v-18.3c0-5.1-1.7-10.4-6.4-13.2c-3.3-1.9-5.8-0.7-6.8,1.9c-0.3,0.6-0.3,1.4-0.3,2.6v19.2l-5-2.9V292.6z"/>
				<path class="st8" d="M532.1,321.5v7.6l7.2,4.2v4.4l-7.2-4.2v17.2c0,3.9,1,6.7,3.8,8.4c1.4,0.8,2.2,1.1,2.9,1.3l0.2,4.5
					c-1-0.1-2.5-0.6-4.5-1.7c-2.4-1.4-4.2-3.4-5.4-5.6c-1.4-2.5-1.9-5.7-1.9-9.4v-17.4l-4.3-2.5v-4.4l4.3,2.5v-5.9L532.1,321.5z"/>
				<path class="st8" d="M545,346.6c0-3.8-0.1-7-0.2-10.1l4.4,2.5l0.2,6.4l0.2,0.1c1.3-3.5,4.3-4.5,7.7-2.5c0.6,0.3,1,0.6,1.4,1v5.5
					c-0.5-0.4-1-0.8-1.7-1.2c-3.6-2.1-6.1-0.4-6.8,3.5c-0.1,0.7-0.2,1.6-0.2,2.6v17l-5-2.9V346.6z"/>
				<path class="st8" d="M563,373c1.5,2,4.1,4.7,6.7,6.1c3.7,2.1,5.4,1,5.4-1.6c0-2.8-1.4-5.1-5.2-8.8c-5-4.9-7.3-9.4-7.3-13.3
					c0-5.1,3.6-7.3,9.6-3.8c2.8,1.6,5.3,4,6.8,5.9l-1.3,3.5c-1.1-1.4-3.1-3.6-5.7-5.1c-3-1.7-4.6-0.7-4.6,1.7c0,2.6,1.7,4.8,5.3,8.4
					c4.8,4.9,7.3,9.1,7.3,13.8c0,5.6-3.8,7.4-10.4,3.6c-3-1.8-5.8-4.3-7.8-6.7L563,373z"/>
				<path class="st8" d="M586.4,345.7l5,2.9v19.9l0.1,0.1c0.8-1.2,2.1-1.9,3.6-2c1.5-0.1,3.3,0.2,5.2,1.3c3.7,2.2,9.7,8.2,9.7,19.2
					v19l-5-2.9v-18.3c0-5.1-1.7-10.4-6.4-13.2c-3.3-1.9-5.8-0.7-6.8,1.9c-0.3,0.6-0.3,1.4-0.3,2.6v19.2l-5-2.9V345.7z"/>
				<path class="st8" d="M618.8,411.1v-27.4l-3.9-2.3V377l3.9,2.3v-1.5c0-4.5,0.9-8.1,3.2-9.3c1.9-1,4.4-0.4,6.8,0.9
					c1.8,1,3.3,2.4,4.3,3.4l-0.7,4.1c-0.7-0.8-1.8-1.8-3.2-2.6c-4.3-2.5-5.4,1.2-5.4,6.1v1.7l6.7,3.9v4.4l-6.7-3.9V414L618.8,411.1z
					"/>
				<path class="st8" d="M658,429.1c0,7.3-1.3,11.1-4,12.3c-2.7,1.3-6.6,0-10.1-2c-3.3-1.9-7-5-9.2-8l1.3-3.7
					c1.8,2.4,4.7,5.2,8.1,7.2c5.2,3,8.9,2.1,8.9-6v-3.6l-0.1-0.1c-1.5,2.1-4.5,2.7-8.8,0.2c-6.9-4-11.8-13.5-11.8-22.4
					c0-10.8,6.1-13.4,12.5-9.7c4.8,2.8,7.5,7.2,8.7,10.5l0.1,0.1l0.2-4.7l4.4,2.5c-0.1,2.2-0.2,4.7-0.2,8.6V429.1z M653,411.6
					c0-1-0.1-1.9-0.3-2.8c-0.9-3.9-3.4-8.1-7.1-10.2c-4.8-2.8-8.3-0.1-8.3,7.3c0,6.3,2.8,13,8.2,16.2c3.1,1.8,5.9,1.2,7-1.9
					c0.3-0.8,0.4-1.9,0.4-2.9V411.6z"/>
				<path class="st8" d="M666.4,391.9l5,2.9v19.9l0.1,0.1c0.8-1.2,2.1-1.9,3.6-2c1.5-0.1,3.3,0.2,5.2,1.3c3.7,2.2,9.7,8.2,9.7,19.2
					v19l-5-2.9V431c0-5.1-1.7-10.4-6.4-13.2c-3.3-1.9-5.8-0.7-6.8,1.9c-0.3,0.6-0.3,1.4-0.3,2.6v19.2l-5-2.9V391.9z"/>
				<path class="st8" d="M704.1,420.9v7.6l7.2,4.2v4.4l-7.2-4.2v17.2c0,3.9,1,6.7,3.8,8.4c1.4,0.8,2.2,1.1,2.9,1.3l0.2,4.5
					c-1-0.1-2.5-0.6-4.5-1.7c-2.4-1.4-4.2-3.4-5.4-5.6c-1.4-2.5-1.9-5.7-1.9-9.4v-17.4l-4.3-2.5v-4.4l4.3,2.5v-5.9L704.1,420.9z"/>
				<path class="st8" d="M723.1,431.8v7.6l7.2,4.2v4.4l-7.2-4.2V461c0,3.9,1,6.7,3.8,8.4c1.4,0.8,2.2,1.1,2.9,1.3l0.2,4.5
					c-1-0.1-2.5-0.6-4.5-1.7c-2.4-1.4-4.2-3.4-5.4-5.6c-1.4-2.5-1.9-5.7-1.9-9.4V441l-4.3-2.5v-4.4l4.3,2.5v-5.9L723.1,431.8z"/>
				<path class="st8" d="M417.7,352.1c0-3.8-0.1-7-0.2-10.1l4.4,2.5l0.2,6.4l0.2,0.1c1.3-3.5,4.3-4.5,7.7-2.5c0.6,0.3,1,0.6,1.4,1
					v5.5c-0.5-0.4-1-0.8-1.7-1.2c-3.6-2.1-6.1-0.4-6.8,3.5c-0.1,0.7-0.2,1.6-0.2,2.6v17l-5-2.9V352.1z"/>
				<path class="st8" d="M459.7,393.6c0,7.3-1.3,11.1-4,12.3c-2.7,1.3-6.6,0-10.1-2c-3.3-1.9-7-5-9.2-8l1.3-3.7
					c1.8,2.4,4.7,5.2,8.1,7.2c5.2,3,8.9,2.1,8.9-6v-3.6l-0.1-0.1c-1.5,2.1-4.5,2.7-8.8,0.2c-6.9-4-11.8-13.5-11.8-22.4
					c0-10.8,6.1-13.4,12.5-9.7c4.8,2.8,7.5,7.2,8.7,10.5l0.1,0.1l0.2-4.7l4.4,2.5c-0.1,2.2-0.2,4.7-0.2,8.6V393.6z M454.7,376.1
					c0-1-0.1-1.9-0.3-2.8c-0.9-3.9-3.4-8.1-7.1-10.2c-4.8-2.8-8.3-0.1-8.3,7.3c0,6.3,2.8,13,8.2,16.2c3.1,1.8,5.9,1.2,7-1.9
					c0.3-0.8,0.4-1.9,0.4-2.9V376.1z"/>
				<path class="st8" d="M467.4,396.7c1.5,2,4.1,4.7,6.7,6.1c3.7,2.1,5.4,1,5.4-1.6c0-2.8-1.4-5.1-5.2-8.8c-5-4.9-7.3-9.4-7.3-13.3
					c0-5.1,3.6-7.3,9.6-3.8c2.8,1.6,5.3,4,6.8,5.9l-1.3,3.5c-1.1-1.4-3.1-3.6-5.7-5.1c-3-1.7-4.6-0.7-4.6,1.7c0,2.6,1.7,4.8,5.3,8.4
					c4.8,4.9,7.3,9.1,7.3,13.8c0,5.6-3.8,7.4-10.4,3.6c-3-1.8-5.8-4.3-7.8-6.7L467.4,396.7z"/>
				<path class="st8" d="M490.8,394.3c0-3.8-0.1-7-0.2-10.1l4.4,2.5l0.2,6.4l0.2,0.1c1.3-3.5,4.3-4.5,7.7-2.5c0.6,0.3,1,0.6,1.4,1
					v5.5c-0.5-0.4-1-0.8-1.7-1.2c-3.6-2.1-6.1-0.4-6.8,3.5c-0.1,0.7-0.2,1.6-0.2,2.6v17l-5-2.9V394.3z"/>
				<path class="st8" d="M509.8,380.4l5,2.9v19.9l0.1,0.1c0.8-1.2,2.1-1.9,3.6-2c1.5-0.1,3.3,0.2,5.2,1.3c3.7,2.2,9.7,8.2,9.7,19.2
					v19l-5-2.9v-18.3c0-5.1-1.7-10.4-6.4-13.2c-3.3-1.9-5.8-0.7-6.8,1.9c-0.3,0.6-0.3,1.4-0.3,2.6V430l-5-2.9V380.4z"/>
				<path class="st8" d="M547.4,409.4v7.6l7.2,4.2v4.4l-7.2-4.2v17.2c0,3.9,1,6.7,3.8,8.4c1.4,0.8,2.2,1.1,2.9,1.3l0.2,4.5
					c-1-0.1-2.5-0.6-4.5-1.7c-2.4-1.4-4.2-3.4-5.4-5.6c-1.4-2.5-1.9-5.7-1.9-9.4v-17.4l-4.3-2.5v-4.4l4.3,2.5v-5.9L547.4,409.4z"/>
				<path class="st8" d="M562.8,425.9l5.4,21c0.9,3.4,1.7,6.5,2.2,9.5l0.2,0.1c0.6-2.3,1.4-4.4,2.4-6.8l5.4-14.8l5.3,3l-10.9,25.6
					l-4.8-2.8l-10.6-37.9L562.8,425.9z"/>
				<path class="st8" d="M588.5,425.8l5,2.9v20l0.1,0.1c1.8-2.5,5-3,9.5-0.4c6.9,4,11.8,13.4,11.7,23c0,11.4-6.3,13.4-12.4,9.9
					c-4-2.3-7.2-5.9-9.3-11.4l-0.2-0.1l-0.2,5.1l-4.4-2.5c0.1-2.1,0.2-5.3,0.2-8.1V425.8z M593.4,462.7c0,0.7,0.1,1.5,0.2,2.2
					c1,4.6,3.9,9,7.6,11.1c5.3,3,8.4-0.1,8.4-7.4c0-6.4-2.9-13.5-8.3-16.6c-3.4-2-6.7-1.1-7.7,2.7c-0.1,0.6-0.3,1.3-0.3,2.2V462.7z"
					/>
				<path class="st8" d="M621.1,469.5c0-3.8-0.1-7-0.2-10.1l4.4,2.5l0.2,6.4l0.2,0.1c1.3-3.5,4.3-4.5,7.7-2.5c0.6,0.3,1,0.6,1.4,1
					v5.5c-0.5-0.4-1-0.8-1.7-1.2c-3.6-2.1-6.1-0.4-6.8,3.5c-0.1,0.7-0.2,1.6-0.2,2.6v17l-5-2.9V469.5z"/>
				<path class="st8" d="M647.3,467v7.6l7.2,4.2v4.4l-7.2-4.2v17.2c0,3.9,1,6.7,3.8,8.4c1.4,0.8,2.2,1.1,2.9,1.3l0.2,4.5
					c-1-0.1-2.5-0.6-4.5-1.7c-2.4-1.4-4.2-3.4-5.4-5.6c-1.4-2.5-1.9-5.7-1.9-9.4v-17.4l-4.3-2.5v-4.4l4.3,2.5V466L647.3,467z"/>
				<path class="st8" d="M660.2,492.1c0-3.8-0.1-7-0.2-10.1l4.4,2.5l0.2,6.4l0.2,0.1c1.3-3.5,4.3-4.5,7.7-2.5c0.6,0.3,1,0.6,1.4,1
					v5.5c-0.5-0.4-1-0.8-1.7-1.2c-3.6-2.1-6.1-0.4-6.8,3.5c-0.1,0.7-0.2,1.6-0.2,2.6v17l-5-2.9V492.1z"/>
				<path class="st8" d="M679.2,478.2l5,2.9V501l0.1,0.1c0.8-1.2,2.1-1.9,3.6-2c1.5-0.1,3.3,0.2,5.2,1.3c3.7,2.2,9.7,8.2,9.7,19.2
					v19l-5-2.9v-18.3c0-5.1-1.7-10.4-6.4-13.2c-3.3-1.9-5.8-0.7-6.8,1.9c-0.3,0.6-0.3,1.4-0.3,2.6v19.2l-5-2.9V478.2z"/>
				<path class="st8" d="M735,510.4v38.5c0,2.8,0.1,6.1,0.2,8.4l-4.5-2.6l-0.2-5.7l-0.1-0.1c-1.5,2.7-4.9,3.4-9.5,0.8
					c-6.7-3.9-11.9-13.4-11.9-23c-0.1-10.6,5.7-13.8,12.4-9.9c4.2,2.5,7.1,6.4,8.4,9.7l0.1,0.1v-19L735,510.4z M729.9,535.4
					c0-0.7-0.1-1.7-0.2-2.6c-0.7-4.1-3.5-8.7-7.3-10.9c-5.2-3-8.3,0.5-8.3,7.5c0,6.4,2.8,13.4,8.2,16.5c3.4,2,6.5,1.2,7.4-2.6
					c0.2-0.7,0.2-1.4,0.2-2.4V535.4z"/>
			</g>
		</g>
		<polygon class="st7" points="701,788.5 312.1,563.9 93.5,690.9 482.5,915.5 		"/>
	</g>
</g>
</svg>
